<svg width="339" height="94" viewBox="0 0 339 94" fill="none" xmlns="http://www.w3.org/2000/svg">
<path d="M18.7874 14.7043H0V0H56.8924V14.7043H38.1019V93.9969H18.7874V14.7043Z" fill="black"/>
<path d="M188.364 80.0825C191.167 80.0825 193.532 79.5775 195.46 78.5677C197.386 77.5579 198.942 75.9317 200.126 73.6921C201.307 71.4525 202.163 68.5532 202.687 64.994C203.214 61.4349 203.474 57.1509 203.474 52.142V41.5978C203.474 31.6699 202.225 24.5733 199.729 20.311C197.234 16.0487 193.442 13.9176 188.364 13.9176H181.925V80.0825H188.364V80.0825ZM163.007 0H190.729C202.29 0 210.679 3.5003 215.891 10.504C221.102 17.5077 223.71 27.9218 223.71 41.7465V52.1173C223.71 65.9481 221.102 76.3839 215.891 83.4279C210.679 90.4749 202.293 93.9969 190.729 93.9969H163.007V0Z" fill="black"/>
<path d="M246.354 60.6543H262.516L257.785 37.1558L255.025 20.8779H254.368L251.345 37.1558L246.354 60.6543ZM265.538 75.3586H243.071L239.131 94H222.445L244.844 0H266.515L288.527 93.9969H269.212L265.532 75.3555L265.538 75.3586Z" fill="black"/>
<path d="M298.45 93.9969V56.9774L277.034 0H296.742L309.617 37.2859H309.881L322.89 0H338.788L317.371 56.8473V93.9969H298.45Z" fill="black"/>
<path d="M150.445 47C150.445 69.3461 132.315 87.461 109.95 87.461C87.5847 87.461 69.4514 69.3461 69.4514 47C69.4514 24.6539 87.5847 6.53595 109.95 6.53595C132.315 6.53595 150.445 24.6508 150.445 47ZM156.987 0H62.9099V93.9969H156.987V0Z" fill="black"/>
</svg>
